<svg width="113" height="120" viewBox="0 0 113 120" fill="none" xmlns="http://www.w3.org/2000/svg">
<g id="Build projects" clip-path="url(#clip0_2_2902)">
<path id="Vector" d="M76.3133 8.34244C79.8401 8.33817 83.3336 9.02268 86.5972 10.3577L70.171 27.5683L86.5796 43.114L102.462 26.3767C104.387 31.6192 104.691 37.3184 103.333 42.7354C101.976 48.1523 99.0204 53.0368 94.8498 56.7561C90.6792 60.4753 85.4859 62.8574 79.9434 63.5936C74.4008 64.3298 68.7645 63.3863 63.7655 60.8851L25.1569 109.362C23.1904 110.803 20.8218 111.593 18.3829 111.623C11.3631 111.623 5.85264 104.612 10.6261 96.2874L53.4114 51.7717C50.5561 47.6117 48.8902 42.7532 48.593 37.7185C48.2959 32.6837 49.3785 27.6633 51.7247 23.1971C54.0709 18.7309 57.5917 14.9878 61.9087 12.3705C66.2256 9.75317 71.1754 8.36059 76.2256 8.34244H76.3133ZM76.2256 8.29499e-05C70.2366 0.0092215 64.3435 1.50353 59.0755 4.34862C53.8075 7.19371 49.3294 11.3004 46.0431 16.3006C42.7568 21.3007 40.7652 27.0378 40.2471 32.9964C39.7291 38.955 40.7007 44.9487 43.0748 50.4397L4.55395 90.4862L3.85204 91.2226L3.36061 92.0989C1.55391 94.9296 0.54354 98.1935 0.435465 101.549C0.32739 104.904 1.12564 108.226 2.74642 111.167C4.35474 113.86 6.64114 116.087 9.3782 117.624C12.1153 119.161 15.2076 119.956 18.3477 119.93C22.5141 119.901 26.5682 118.578 29.9479 116.144L30.9307 115.461L31.6853 114.515L66.433 70.8046C72.8612 72.6005 79.6608 72.5912 86.084 70.7777C92.5072 68.9641 98.3051 65.4166 102.84 60.5253C107.375 55.634 110.472 49.5887 111.789 43.0537C113.106 36.5187 112.593 29.7473 110.306 23.4846L105.656 10.8485L96.3898 20.6281L86.2637 31.3016L82.0168 27.2705L92.6693 16.1238L101.128 7.23808L89.7561 2.61143C85.4875 0.877092 80.9216 -0.00987647 76.3133 8.29499e-05H76.2256Z" fill="url(#paint0_linear_2_2902)"/>
</g>
<defs>
<linearGradient id="paint0_linear_2_2902" x1="10.9967" y1="-4.59721" x2="77.5825" y2="136.044" gradientUnits="userSpaceOnUse">
<stop stop-color="#437FEC"/>
<stop offset="0.38" stop-color="#356FD8"/>
<stop offset="1" stop-color="#184EAE"/>
</linearGradient>
<clipPath id="clip0_2_2902">
<rect width="112" height="120" fill="white" transform="translate(0.5)"/>
</clipPath>
</defs>
</svg>
