<svg width="113" height="121" viewBox="0 0 113 121" fill="none" xmlns="http://www.w3.org/2000/svg">
<g id="Chat support" clip-path="url(#clip0_2_2974)">
<path id="Union" fill-rule="evenodd" clip-rule="evenodd" d="M39.7162 57.2221C44.8653 60.6553 50.9189 62.4876 57.1117 62.4876C65.413 62.4784 73.3718 59.1834 79.2418 53.3261C83.0038 49.5721 85.711 44.9619 87.1727 39.9544C89.3993 39.8281 91.166 37.9826 91.166 35.7245V27.7741C91.166 25.6154 89.5515 23.8339 87.464 23.5708C86.5926 20.1386 85.1382 16.8606 83.1459 13.8854C79.7054 8.74738 74.8153 4.74279 69.094 2.37802C63.3726 0.0132533 57.077 -0.605095 51.0033 0.600454C44.9295 1.806 39.3504 4.78165 34.9715 9.15117C30.983 13.1311 28.1534 18.1045 26.7675 23.5395C26.7221 23.5381 26.6764 23.5374 26.6306 23.5374C24.2905 23.5374 22.3935 25.4342 22.3935 27.7741V35.7245C22.3935 38.0644 24.2905 39.9613 26.6306 39.9613C26.7682 39.9613 26.9042 39.9547 27.0384 39.9419C27.3587 41.0446 27.7408 42.1325 28.184 43.2004C30.5539 48.9094 34.5671 53.789 39.7162 57.2221ZM44.8659 12.957C48.4898 10.5372 52.7512 9.24401 57.1117 9.24056C62.9615 9.24056 68.5719 11.5584 72.71 15.6842C76.848 19.8101 79.1751 25.4063 79.1797 31.2435C79.1797 35.5946 77.8869 39.848 75.4647 43.466C73.0426 47.084 69.5998 49.9043 65.5716 51.5702C61.5434 53.2361 57.1106 53.6731 52.8337 52.8255C48.5568 51.9779 44.6278 49.8838 41.5432 46.8083C39.7856 45.0558 38.3471 43.0294 37.277 40.8208L47.5949 44.0236C48.1558 45.7052 49.7482 46.918 51.6251 46.918H59.5928C61.9377 46.918 63.8385 45.025 63.8385 42.69C63.8385 40.3549 61.9377 38.462 59.5928 38.462H51.6251C50.5301 38.462 49.532 38.8747 48.779 39.5525L35.4803 35.4244C34.6601 31.1953 35.1018 26.8178 36.7521 22.8354C38.4184 18.8145 41.242 15.3769 44.8659 12.957ZM56.902 76.0173C47.3279 76.1488 37.985 73.08 30.361 67.2998L30.3261 67.3347C21.3985 72.9504 14.7839 81.5734 11.6827 91.6392C9.7224 98.1701 9.23313 105.053 10.2499 111.794H102.855C103.961 103.335 102.742 94.7347 99.3291 86.913C95.9161 79.0913 90.4372 72.3423 83.478 67.387C75.799 73.0776 66.4666 76.1082 56.902 76.0173ZM80.9969 57.3269H84.7011L84.6662 57.292C96.8598 64.2265 105.913 75.5759 109.949 88.989C113.184 99.4232 113.342 110.566 110.403 121.087H2.87646C-0.269367 110.618 -0.269367 99.4581 2.87646 88.989C7.10102 75.3855 16.5484 64.003 29.1554 57.3269H32.8596C39.3917 63.4096 47.9936 66.7924 56.9282 66.7924C65.8629 66.7924 74.4648 63.4096 80.9969 57.3269Z" fill="url(#paint0_linear_2_2974)"/>
</g>
<defs>
<linearGradient id="paint0_linear_2_2974" x1="11.0789" y1="-4.64154" x2="78.7517" y2="136.809" gradientUnits="userSpaceOnUse">
<stop stop-color="#437FEC"/>
<stop offset="0.38" stop-color="#356FD8"/>
<stop offset="1" stop-color="#184EAE"/>
</linearGradient>
<clipPath id="clip0_2_2974">
<rect width="112" height="121" fill="white" transform="translate(0.5)"/>
</clipPath>
</defs>
</svg>
