<svg width="171" height="121" viewBox="0 0 171 121" fill="none" xmlns="http://www.w3.org/2000/svg">
<path id="Vector" d="M131.904 121H32.9706C14.9764 121 0.34082 106.869 0.34082 89.5014C0.393384 83.0208 2.44366 76.7141 6.21204 71.4415C9.98042 66.1689 15.2834 62.187 21.3979 60.0388C21.752 55.572 23.566 51.3457 26.56 48.012C29.5541 44.6783 33.5619 42.4223 37.9651 41.5921C40.1753 18.3075 60.5537 0 85.2827 0C111.387 0 132.792 20.535 132.792 45.7861V46.2386C153.675 46.6911 170.66 63.2757 170.66 83.6193C170.66 104.224 153.274 121 131.904 121ZM42.107 50.4674C39.1409 50.4203 36.2754 51.542 34.1295 53.5902C31.9836 55.6384 30.7297 58.4486 30.6387 61.4136C30.6394 61.8912 30.6743 62.3681 30.7431 62.8406L31.3348 66.9825L27.193 67.87C22.2462 68.9603 17.8131 71.6903 14.6131 75.6169C11.413 79.5436 9.63378 84.4364 9.56418 89.5014C9.56418 101.788 20.0057 111.777 32.9706 111.777H131.904C148.193 111.777 161.488 99.1424 161.488 83.6193C161.488 68.0962 148.263 55.4446 131.904 55.4446C130.741 55.4486 129.58 55.5125 128.424 55.636L122.594 56.2973L123.272 50.4674C123.464 48.9084 123.563 47.3394 123.568 45.7687C123.568 25.5992 106.392 9.22336 85.2827 9.22336C64.1734 9.22336 46.9971 25.6166 46.9971 45.7687V50.9895L42.107 50.4674Z" fill="url(#paint0_linear_2_2825)"/>
<defs>
<linearGradient id="paint0_linear_2_2825" x1="16.4051" y1="-4.63821" x2="66.0942" y2="153.445" gradientUnits="userSpaceOnUse">
<stop stop-color="#437FEC"/>
<stop offset="0.38" stop-color="#356FD8"/>
<stop offset="1" stop-color="#184EAE"/>
</linearGradient>
</defs>
</svg>
