<svg width="155" height="121" viewBox="0 0 155 121" fill="none" xmlns="http://www.w3.org/2000/svg">
<g id="Code reviews" clip-path="url(#clip0_2_2932)">
<path id="Union" fill-rule="evenodd" clip-rule="evenodd" d="M137.629 100.377H98.8216C99.1821 100.769 99.4023 101.293 99.4023 101.867V111.278H129.523C132.202 111.278 134.373 113.45 134.373 116.13V116.147C134.373 118.827 132.202 121 129.523 121H44.0447C41.3662 121 39.1949 118.827 39.1949 116.147V116.13C39.1949 113.45 41.3662 111.278 44.0447 111.278H74.3909V101.867C74.3909 101.293 74.6111 100.769 74.9716 100.377H36.4062C31.9333 100.373 27.6449 98.5928 24.482 95.4282C24.2292 95.1752 23.9852 94.915 23.7502 94.6481L8.54775 108.635C6.57612 110.449 3.50801 110.32 1.695 108.348L1.68327 108.335C-0.129742 106.362 -0.001223 103.292 1.97041 101.478L19.6268 85.2337C19.5669 84.6595 19.5363 84.0801 19.5357 83.4976V16.8797C19.5403 12.4043 21.3192 8.11359 24.482 4.94903C27.6449 1.78447 31.9333 0.00458777 36.4062 0H137.629C142.099 0.00917175 146.383 1.79131 149.543 4.95538C152.702 8.11944 154.478 12.4073 154.483 16.8797V83.4976C154.478 87.97 152.702 92.2578 149.543 95.4219C146.383 98.5859 142.099 100.368 137.629 100.377ZM30.9683 88.9383C30.8061 88.776 30.6519 88.6072 30.5059 88.4325L47.8811 72.4466C48.3249 72.0383 48.6753 71.5664 48.9312 71.0577C49.6168 71.5857 50.3233 72.0816 51.0483 72.5445H48.4096C48.2284 72.5423 48.0487 72.5758 47.8807 72.6435C47.7126 72.7113 47.5597 72.8119 47.4308 72.9393C47.3019 73.0667 47.1996 73.2184 47.1297 73.3857C47.0599 73.5529 47.0239 73.7324 47.0239 73.9137C47.0239 74.2814 47.1699 74.634 47.4298 74.894C47.6896 75.154 48.0421 75.3002 48.4096 75.3002H56.5632C59.8364 76.5266 63.326 77.1694 66.8737 77.1713C74.2653 77.1753 81.388 74.3976 86.8274 69.39C91.3166 65.2571 94.3979 59.8452 95.6747 53.9146H107.647C107.828 53.9169 108.008 53.883 108.176 53.8152C108.344 53.7474 108.497 53.6472 108.626 53.5199C108.755 53.3925 108.857 53.2407 108.927 53.0735C108.997 52.9062 109.033 52.7267 109.033 52.5454C109.033 52.1777 108.887 51.8251 108.627 51.5651C108.367 51.3051 108.015 51.1589 107.647 51.1589H96.1326C96.9151 44.5169 95.4158 37.7998 91.8727 32.1168C89.5182 28.3403 86.3571 25.1743 82.6506 22.8243H87.2604C87.4416 22.8243 87.6209 22.7884 87.788 22.7185C87.9552 22.6486 88.1068 22.5458 88.2341 22.4168C88.3614 22.2879 88.4618 22.1352 88.5296 21.9671C88.5973 21.799 88.631 21.619 88.6287 21.4378C88.6287 21.0747 88.4846 20.7265 88.2279 20.4697C87.9713 20.2129 87.6233 20.0686 87.2604 20.0686H77.0785C76.7784 19.9579 76.4762 19.8519 76.1718 19.7508C69.8281 17.6424 62.9617 17.7578 56.7002 20.0686H40.6325C40.2696 20.0686 39.9216 20.2129 39.665 20.4697C39.4084 20.7265 39.2642 21.0747 39.2642 21.4378C39.2619 21.619 39.2956 21.799 39.3634 21.9671C39.4311 22.1352 39.5316 22.2879 39.6588 22.4168C39.7861 22.5458 39.9377 22.6486 40.1049 22.7185C40.272 22.7884 40.4513 22.8243 40.6325 22.8243H51.1283C47.8664 24.8924 45.0351 27.5876 42.8042 30.7613H33.8427C33.6616 30.759 33.4817 30.793 33.3137 30.8608C33.1457 30.9285 32.9929 31.0292 32.864 31.1565C32.7351 31.2839 32.6326 31.4352 32.5628 31.6025C32.493 31.7697 32.4571 31.9492 32.4571 32.1305C32.4571 32.4982 32.6031 32.8508 32.8629 33.1108C33.1228 33.3708 33.4752 33.517 33.8427 33.517H41.086C39.7034 36.0334 38.7061 38.7194 38.1084 41.4866C37.9894 41.4538 37.8656 41.4368 37.7399 41.4368H33.8081C33.4406 41.4368 33.0881 41.5825 32.8283 41.8425C32.5684 42.1025 32.4224 42.4556 32.4224 42.8233C32.4224 43.0045 32.4584 43.1836 32.5282 43.3509C32.5981 43.5181 32.7004 43.6699 32.8293 43.7973C32.9582 43.9246 33.1111 44.0252 33.2792 44.093C33.4472 44.1608 33.6269 44.1943 33.8081 44.192H37.6547C37.3778 46.4952 37.3724 48.8337 37.6464 51.1589H33.8427C33.4752 51.1589 33.1228 51.3051 32.8629 51.5651C32.6031 51.8251 32.4571 52.1777 32.4571 52.5454C32.4571 52.7267 32.493 52.9062 32.5628 53.0735C32.6326 53.2407 32.7351 53.3925 32.864 53.5199C32.9929 53.6472 33.1457 53.7474 33.3137 53.8152C33.4817 53.883 33.6616 53.9169 33.8427 53.9146H38.1044C38.7055 56.7065 39.705 59.3776 41.058 61.8517H33.8427C33.6489 61.8299 33.4527 61.8491 33.2669 61.9084C33.0811 61.9677 32.9099 62.0657 32.7645 62.1957C32.6191 62.3258 32.5028 62.4851 32.4231 62.6632C32.3435 62.8413 32.3024 63.0342 32.3024 63.2293C32.3024 63.4245 32.3435 63.6173 32.4231 63.7955C32.5028 63.9736 32.6191 64.1329 32.7645 64.263C32.9099 64.393 33.0811 64.491 33.2669 64.5503C33.4527 64.6096 33.6489 64.6288 33.8427 64.607H42.2525C41.917 64.7915 41.5982 65.0191 41.3038 65.2899L33.2341 72.7144C33.1242 72.7751 33.0229 72.8507 32.9333 72.9393C32.8669 73.0048 32.8076 73.0769 32.7562 73.1541L28.7157 76.8715V16.8797C28.7157 14.8389 29.526 12.882 30.9683 11.439C32.4105 9.99597 34.3666 9.18513 36.4062 9.18513H137.629C139.668 9.18971 141.621 10.002 143.062 11.4441C144.504 12.8861 145.315 14.8403 145.32 16.8797V83.4976C145.315 85.5369 144.504 87.4911 143.062 88.9332C141.621 90.3752 139.668 91.1875 137.629 91.1921H36.4062C34.3666 91.1921 32.4105 90.3813 30.9683 88.9383ZM49.4923 65.4909H61.5215C62.2519 65.4909 62.9525 65.2008 63.4689 64.684C63.9854 64.1673 64.2756 63.4665 64.2756 62.7356C64.2756 62.0048 63.9854 61.3036 63.4689 60.7868C62.9525 60.2701 62.2519 59.98 61.5215 59.98H46.9547C46.4321 59.98 45.9248 60.1285 45.4893 60.4022C44.7934 59.2312 44.1925 58.0013 43.6945 56.7236C43.5114 56.2539 43.343 55.7795 43.1892 55.3011H80.4532C81.1836 55.3011 81.8842 55.0106 82.4007 54.4939C82.9171 53.9771 83.2073 53.2763 83.2073 52.5455C83.2073 51.8147 82.9171 51.1138 82.4007 50.5971C81.8842 50.0803 81.1836 49.7898 80.4532 49.7898H42.0834C41.9644 48.3924 41.9632 46.9836 42.0819 45.5785H43.5597C44.2901 45.5785 44.9907 45.2884 45.5072 44.7717C46.0236 44.2549 46.3138 43.5541 46.3138 42.8233C46.3138 42.0925 46.0236 41.3912 45.5072 40.8745C44.9907 40.3577 44.2901 40.0676 43.5597 40.0676H43.1833C43.7555 38.2831 44.5284 36.5655 45.4892 34.9485C45.6199 35.0307 45.7575 35.102 45.9008 35.1613C46.2349 35.2998 46.593 35.3712 46.9547 35.3712H61.5215C62.2519 35.3712 62.9525 35.0807 63.4689 34.5639C63.9854 34.0472 64.2756 33.3463 64.2756 32.6155C64.2756 31.8847 63.9854 31.1839 63.4689 30.6671C62.9525 30.1504 62.2519 29.8599 61.5215 29.8599H49.4919C51.1962 28.1942 53.1369 26.776 55.2585 25.6547C58.8382 23.7629 62.8252 22.7733 66.8737 22.7717C71.8867 22.7697 76.7835 24.282 80.9229 27.1111C82.1239 27.9319 83.2449 28.8524 84.2757 29.8599H82.8782H69.2813H68.3114C67.9497 29.8599 67.5915 29.9312 67.2574 30.0697C66.9232 30.2082 66.6197 30.4113 66.3639 30.6671C66.1082 30.923 65.9053 31.2268 65.7669 31.5612C65.6285 31.8955 65.5573 32.2537 65.5573 32.6155C65.5573 32.9774 65.6285 33.3356 65.7669 33.6699C65.9053 34.0042 66.1082 34.308 66.3639 34.5639C66.6197 34.8198 66.9232 35.0229 67.2574 35.1613C67.5915 35.2998 67.9497 35.3712 68.3114 35.3712H69.2813H82.8782H87.7454C87.9918 35.3712 88.2348 35.3381 88.4685 35.2745C89.0835 36.3459 89.6203 37.4662 90.0728 38.6271C90.3223 39.2671 90.5445 39.9154 90.7393 40.5703H83.9347C83.2043 40.5703 82.5039 40.8604 81.9874 41.3772C81.4709 41.8939 81.1808 42.5947 81.1808 43.3256C81.1808 44.0564 81.4709 44.7572 81.9874 45.2739C82.5039 45.7907 83.2043 46.0812 83.9347 46.0812H91.7227C91.8122 47.4764 91.7842 48.8793 91.6378 50.2749C91.6336 50.2749 91.6294 50.2749 91.6252 50.2749H88.7153C87.9849 50.2749 87.2845 50.5654 86.768 51.0822C86.2515 51.5989 85.9614 52.2998 85.9614 53.0306C85.9614 53.7614 86.2515 54.4622 86.768 54.979C87.2845 55.4957 87.9849 55.7862 88.7153 55.7862H90.4166C89.903 57.2782 89.2499 58.7145 88.4682 60.0765C88.2346 60.013 87.9917 59.98 87.7454 59.98H69.2813C68.5509 59.98 67.8504 60.2701 67.3339 60.7868C66.8174 61.3036 66.5273 62.0048 66.5273 62.7356C66.5273 63.4665 66.8174 64.1673 67.3339 64.684C67.8504 65.2008 68.5509 65.4909 69.2813 65.4909H84.2752C84.0952 65.6667 83.9125 65.84 83.7269 66.0107C80.7462 68.7518 77.1423 70.724 73.2276 71.7564C71.5741 72.1925 69.8863 72.4553 68.191 72.5445H65.5756C64.1275 72.4683 62.6839 72.2654 61.2616 71.9354C57.3178 71.0204 53.6566 69.1565 50.5954 66.5057C50.217 66.178 49.8492 65.8396 49.4923 65.4909ZM135.811 22.8244H127.15C126.783 22.8244 126.43 22.6782 126.171 22.4182C125.911 22.1582 125.765 21.8056 125.765 21.4379C125.765 21.2566 125.801 21.0771 125.871 20.9098C125.94 20.7426 126.043 20.5908 126.172 20.4635C126.301 20.3361 126.453 20.2355 126.621 20.1677C126.789 20.0999 126.969 20.0664 127.15 20.0687H135.811C135.992 20.0664 136.172 20.0999 136.34 20.1677C136.508 20.2355 136.661 20.3361 136.79 20.4635C136.919 20.5908 137.021 20.7426 137.091 20.9098C137.161 21.0771 137.196 21.2566 137.196 21.4379C137.196 21.8056 137.05 22.1582 136.791 22.4182C136.531 22.6782 136.178 22.8244 135.811 22.8244ZM97.0467 33.517H105.707C106.075 33.517 106.427 33.3708 106.687 33.1108C106.947 32.8508 107.093 32.4982 107.093 32.1305C107.093 31.9492 107.057 31.7697 106.987 31.6025C106.917 31.4352 106.815 31.2839 106.686 31.1565C106.557 31.0292 106.404 30.9285 106.236 30.8608C106.068 30.793 105.888 30.759 105.707 30.7613H97.0467C96.6837 30.7613 96.3357 30.9057 96.0791 31.1624C95.8225 31.4192 95.6783 31.7674 95.6783 32.1305C95.6783 32.4952 95.8219 32.8454 96.0781 33.1049C96.3342 33.3644 96.6822 33.5124 97.0467 33.517ZM139.708 44.192H131.048C130.685 44.192 130.337 44.0481 130.08 43.7913C129.823 43.5346 129.679 43.1864 129.679 42.8233C129.677 42.642 129.711 42.4621 129.778 42.294C129.846 42.1259 129.946 41.9728 130.074 41.8438C130.201 41.7148 130.353 41.6124 130.52 41.5425C130.687 41.4727 130.866 41.4368 131.048 41.4368H139.708C139.889 41.4368 140.068 41.4727 140.236 41.5425C140.403 41.6124 140.554 41.7148 140.682 41.8438C140.809 41.9728 140.91 42.1259 140.977 42.294C141.045 42.4621 141.079 42.642 141.076 42.8233C141.076 43.1864 140.932 43.5346 140.676 43.7913C140.419 44.0481 140.071 44.192 139.708 44.192ZM120.274 22.8244H95.0201C94.839 22.8244 94.6597 22.7885 94.4925 22.7186C94.3254 22.6487 94.1737 22.5459 94.0464 22.4169C93.9191 22.288 93.8186 22.1353 93.7509 21.9672C93.6832 21.7991 93.6495 21.6191 93.6518 21.4379C93.6518 21.0748 93.796 20.7266 94.0526 20.4698C94.3092 20.2131 94.6572 20.0687 95.0201 20.0687H120.274C120.455 20.0664 120.635 20.0999 120.803 20.1677C120.971 20.2355 121.124 20.3361 121.253 20.4635C121.382 20.5908 121.484 20.7426 121.554 20.9098C121.624 21.0771 121.66 21.2566 121.66 21.4379C121.66 21.8056 121.514 22.1582 121.254 22.4182C120.994 22.6782 120.642 22.8244 120.274 22.8244ZM101.827 44.192H127.081C127.444 44.192 127.792 44.0481 128.049 43.7913C128.305 43.5346 128.449 43.1864 128.449 42.8233C128.452 42.642 128.418 42.4621 128.35 42.294C128.283 42.1259 128.182 41.9728 128.055 41.8438C127.927 41.7148 127.776 41.6124 127.609 41.5425C127.442 41.4727 127.262 41.4368 127.081 41.4368H101.827C101.46 41.4368 101.107 41.5825 100.847 41.8425C100.588 42.1025 100.442 42.4556 100.442 42.8233C100.442 43.0045 100.477 43.1836 100.547 43.3509C100.617 43.5181 100.72 43.6699 100.848 43.7973C100.977 43.9246 101.13 44.0252 101.298 44.093C101.466 44.1608 101.646 44.1943 101.827 44.192ZM114.454 53.9146H139.708C140.071 53.9146 140.419 53.7703 140.676 53.5135C140.932 53.2567 141.076 52.9086 141.076 52.5454C141.079 52.3642 141.045 52.1843 140.977 52.0161C140.91 51.848 140.809 51.6949 140.682 51.566C140.554 51.437 140.403 51.3346 140.236 51.2647C140.068 51.1948 139.889 51.1589 139.708 51.1589H114.454C114.087 51.1589 113.734 51.3051 113.474 51.5651C113.214 51.8251 113.068 52.1777 113.068 52.5454C113.068 52.7267 113.104 52.9062 113.174 53.0735C113.244 53.2407 113.346 53.3925 113.475 53.5199C113.604 53.6472 113.757 53.7474 113.925 53.8152C114.093 53.883 114.273 53.9169 114.454 53.9146ZM139.708 33.517H114.454C114.087 33.517 113.734 33.3708 113.474 33.1108C113.214 32.8508 113.068 32.4982 113.068 32.1305C113.068 31.9492 113.104 31.7697 113.174 31.6025C113.244 31.4352 113.346 31.2839 113.475 31.1565C113.604 31.0292 113.757 30.9285 113.925 30.8608C114.093 30.793 114.273 30.759 114.454 30.7613H139.708C140.071 30.7613 140.419 30.9057 140.676 31.1624C140.932 31.4192 141.076 31.7674 141.076 32.1305C141.079 32.3117 141.045 32.4917 140.977 32.6598C140.91 32.8279 140.809 32.981 140.682 33.11C140.554 33.239 140.403 33.3413 140.236 33.4112C140.068 33.4811 139.889 33.517 139.708 33.517ZM51.3195 45.5785H76.5733C77.3037 45.5785 78.0043 45.2884 78.5208 44.7717C79.0372 44.2549 79.3274 43.5541 79.3274 42.8233C79.3274 42.0925 79.0372 41.3912 78.5208 40.8745C78.0043 40.3577 77.3037 40.0676 76.5733 40.0676H51.3195C50.5891 40.0676 49.8886 40.3577 49.3721 40.8745C48.8556 41.3912 48.5655 42.0925 48.5655 42.8233C48.5655 43.5541 48.8556 44.2549 49.3721 44.7717C49.8886 45.2884 50.5891 45.5785 51.3195 45.5785ZM96.0767 64.607H104.737C104.931 64.6288 105.127 64.6096 105.313 64.5503C105.499 64.491 105.67 64.393 105.815 64.263C105.961 64.1329 106.077 63.9736 106.157 63.7955C106.236 63.6173 106.277 63.4245 106.277 63.2293C106.277 63.0342 106.236 62.8413 106.157 62.6632C106.077 62.4851 105.961 62.3258 105.815 62.1957C105.67 62.0657 105.499 61.9677 105.313 61.9084C105.127 61.8491 104.931 61.8299 104.737 61.8517H96.0767C95.7381 61.8898 95.4253 62.0511 95.1983 62.3053C94.9712 62.5594 94.8457 62.8884 94.8457 63.2293C94.8457 63.5703 94.9712 63.8992 95.1983 64.1534C95.4253 64.4076 95.7381 64.5689 96.0767 64.607ZM92.1102 75.3002H83.4498C83.0853 75.2956 82.7372 75.1472 82.4811 74.8877C82.2249 74.6282 82.0813 74.2784 82.0814 73.9137C82.0814 73.5506 82.2255 73.2024 82.4821 72.9456C82.7387 72.6889 83.0869 72.5445 83.4498 72.5445H92.1102C92.2914 72.5423 92.4711 72.5758 92.6391 72.6435C92.8071 72.7113 92.9601 72.8119 93.089 72.9393C93.2179 73.0667 93.3202 73.2184 93.39 73.3857C93.4599 73.5529 93.4959 73.7324 93.4959 73.9137C93.4959 74.2814 93.3499 74.634 93.09 74.894C92.8301 75.154 92.4777 75.3002 92.1102 75.3002ZM139.708 75.3001H131.048C130.866 75.3001 130.687 75.2638 130.52 75.1939C130.353 75.124 130.201 75.0216 130.074 74.8927C129.946 74.7637 129.846 74.611 129.778 74.4429C129.711 74.2748 129.677 74.0948 129.679 73.9136C129.679 73.5505 129.823 73.2023 130.08 72.9455C130.337 72.6888 130.685 72.5444 131.048 72.5444H139.708C140.071 72.5444 140.419 72.6888 140.676 72.9455C140.932 73.2023 141.076 73.5505 141.076 73.9136C141.079 74.0948 141.045 74.2748 140.977 74.4429C140.91 74.611 140.809 74.7637 140.682 74.8927C140.554 75.0216 140.403 75.124 140.236 75.1939C140.068 75.2638 139.889 75.3001 139.708 75.3001ZM100.857 75.3002H126.076C126.258 75.3002 126.437 75.2639 126.604 75.194C126.771 75.1241 126.923 75.0217 127.05 74.8928C127.178 74.7638 127.278 74.6111 127.346 74.443C127.413 74.2749 127.447 74.0949 127.445 73.9137C127.445 73.5506 127.301 73.2024 127.044 72.9456C126.787 72.6889 126.439 72.5445 126.076 72.5445H100.857C100.676 72.5423 100.496 72.5758 100.328 72.6435C100.16 72.7113 100.007 72.8119 99.8785 72.9393C99.7496 73.0667 99.6472 73.2184 99.5773 73.3857C99.5075 73.5529 99.4716 73.7324 99.4716 73.9137C99.4716 74.2814 99.6176 74.634 99.8775 74.894C100.137 75.154 100.49 75.3002 100.857 75.3002ZM114.454 64.607H139.708C140.047 64.5689 140.359 64.4076 140.586 64.1534C140.814 63.8992 140.939 63.5703 140.939 63.2293C140.939 62.8884 140.814 62.5594 140.586 62.3053C140.359 62.0511 140.047 61.8898 139.708 61.8517H114.454C114.26 61.8299 114.064 61.8491 113.878 61.9084C113.693 61.9677 113.521 62.0657 113.376 62.1957C113.231 62.3258 113.114 62.4851 113.035 62.6632C112.955 62.8413 112.914 63.0342 112.914 63.2293C112.914 63.4245 112.955 63.6173 113.035 63.7955C113.114 63.9736 113.231 64.1329 113.376 64.263C113.521 64.393 113.693 64.491 113.878 64.5503C114.064 64.6096 114.26 64.6288 114.454 64.607Z" fill="url(#paint0_linear_2_2932)"/>
</g>
<defs>
<linearGradient id="paint0_linear_2_2932" x1="14.9359" y1="-4.6382" x2="68.7875" y2="150.352" gradientUnits="userSpaceOnUse">
<stop stop-color="#437FEC"/>
<stop offset="0.38" stop-color="#356FD8"/>
<stop offset="1" stop-color="#184EAE"/>
</linearGradient>
<clipPath id="clip0_2_2932">
<rect width="154" height="121" fill="white" transform="translate(0.5)"/>
</clipPath>
</defs>
</svg>
