<svg width="167" height="118" viewBox="0 0 167 118" fill="none" xmlns="http://www.w3.org/2000/svg">
<g id="Frame" clip-path="url(#clip0_2_2841)">
<path id="Union" fill-rule="evenodd" clip-rule="evenodd" d="M85.162 11.8906C84.659 12.0238 84.1304 12.0948 83.585 12.0948C83.0044 12.0948 82.4428 12.0143 81.9109 11.864L56.9605 35.2737H110.03L85.162 11.8906ZM78.3142 9.08933C77.7888 8.19573 77.4878 7.15642 77.4878 6.04739C77.4878 2.70751 80.2176 0 83.585 0C86.9524 0 89.6822 2.70751 89.6822 6.04739C89.6822 7.18615 89.3648 8.2514 88.8131 9.16088L116.629 35.2737H153.796C157.164 35.2781 160.393 36.6068 162.774 38.9688C165.156 41.3308 166.495 44.5334 166.5 47.8738V105.4C166.495 108.74 165.156 111.943 162.774 114.305C160.393 116.667 157.164 117.995 153.796 118H13.2039C9.83601 117.995 6.60732 116.667 4.22585 114.305C1.84438 111.943 0.504494 108.74 0.5 105.4V47.8738C0.504494 44.5334 1.84438 41.3308 4.22585 38.9688C6.60732 36.6068 9.83601 35.2781 13.2039 35.2737H50.4224L78.3142 9.08933ZM39.1382 107.084C38.9606 107.086 38.7843 107.054 38.6195 106.988C38.4548 106.922 38.3049 106.824 38.1785 106.7C38.0521 106.577 37.9517 106.429 37.8832 106.266C37.8147 106.104 37.7795 105.929 37.7795 105.753V47.7219C37.7581 47.5334 37.7771 47.3429 37.8353 47.1622C37.8934 46.9815 37.9893 46.815 38.1168 46.6736C38.2442 46.5322 38.4003 46.4188 38.5749 46.3413C38.7494 46.2639 38.9385 46.2241 39.1297 46.2241C39.3209 46.2241 39.51 46.2639 39.6845 46.3413C39.8591 46.4188 40.0152 46.5322 40.1427 46.6736C40.2701 46.815 40.366 46.9815 40.4241 47.1622C40.4823 47.3429 40.5013 47.5334 40.4799 47.7219V105.753C40.4799 106.106 40.3386 106.445 40.0869 106.695C39.8353 106.944 39.494 107.084 39.1382 107.084ZM53.5914 107.084C53.2356 107.084 52.8943 106.944 52.6427 106.695C52.3911 106.445 52.2497 106.106 52.2497 105.753V47.7219C52.2284 47.5334 52.2474 47.3429 52.3055 47.1622C52.3636 46.9815 52.4595 46.815 52.587 46.6736C52.7144 46.5322 52.8705 46.4188 53.0451 46.3413C53.2196 46.2639 53.4087 46.2241 53.5999 46.2241C53.7911 46.2241 53.9802 46.2639 54.1548 46.3413C54.3293 46.4188 54.4854 46.5322 54.6129 46.6736C54.7403 46.815 54.8362 46.9815 54.8944 47.1622C54.9525 47.3429 54.9715 47.5334 54.9501 47.7219V105.753C54.9501 105.929 54.9149 106.104 54.8464 106.266C54.7779 106.429 54.6776 106.577 54.5512 106.7C54.4248 106.824 54.2748 106.922 54.1101 106.988C53.9453 107.054 53.769 107.086 53.5914 107.084ZM82.2261 107.084C82.0485 107.086 81.8722 107.054 81.7074 106.988C81.5427 106.922 81.3927 106.824 81.2663 106.7C81.1399 106.577 81.0396 106.429 80.9711 106.266C80.9026 106.104 80.8674 105.929 80.8674 105.753V47.7219C80.846 47.5334 80.8651 47.3429 80.9232 47.1622C80.9813 46.9815 81.0772 46.815 81.2046 46.6736C81.3321 46.5322 81.4882 46.4188 81.6627 46.3413C81.8373 46.2639 82.0264 46.2241 82.2176 46.2241C82.4088 46.2241 82.5979 46.2639 82.7725 46.3413C82.947 46.4188 83.1031 46.5322 83.2306 46.6736C83.358 46.815 83.4539 46.9815 83.512 47.1622C83.5701 47.3429 83.5891 47.5334 83.5678 47.7219V105.753C83.5678 106.106 83.4264 106.445 83.1748 106.695C82.9232 106.944 82.5819 107.084 82.2261 107.084ZM96.1724 106.695C96.424 106.944 96.7653 107.084 97.1211 107.084C97.2988 107.086 97.4751 107.054 97.6398 106.988C97.8046 106.922 97.9545 106.824 98.0809 106.7C98.2072 106.577 98.3076 106.429 98.3761 106.267C98.4446 106.104 98.4799 105.929 98.4798 105.753V47.722C98.4798 47.545 98.4447 47.3697 98.3764 47.2062C98.3081 47.0427 98.208 46.8942 98.0819 46.7691C97.9557 46.6439 97.8059 46.5448 97.6411 46.4771C97.4762 46.4094 97.2996 46.3743 97.1211 46.3743C96.9435 46.3743 96.7676 46.4096 96.6037 46.4775C96.4398 46.5454 96.2912 46.6449 96.1663 46.7703C96.0415 46.8957 95.9431 47.0441 95.8766 47.2075C95.8102 47.3709 95.7772 47.5458 95.7794 47.722V105.753C95.7794 106.106 95.9208 106.445 96.1724 106.695ZM67.2543 106.988C67.4191 107.054 67.5954 107.086 67.773 107.084C68.1289 107.084 68.4701 106.944 68.7217 106.695C68.9734 106.445 69.1147 106.106 69.1147 105.753V47.722C69.117 47.5458 69.0839 47.3709 69.0175 47.2075C68.9511 47.0441 68.8526 46.8957 68.7278 46.7703C68.603 46.6449 68.4543 46.5454 68.2904 46.4775C68.1265 46.4096 67.9507 46.3743 67.773 46.3743C67.4127 46.3743 67.0671 46.5163 66.8123 46.7691C66.5575 47.0218 66.4143 47.3646 66.4143 47.722V105.753C66.4143 105.929 66.4496 106.104 66.518 106.267C66.5865 106.429 66.6869 106.577 66.8133 106.7C66.9397 106.824 67.0896 106.922 67.2543 106.988ZM126.384 107.084C126.028 107.084 125.687 106.944 125.436 106.695C125.184 106.445 125.043 106.106 125.043 105.753V47.722C125.04 47.5458 125.073 47.3709 125.14 47.2075C125.206 47.0441 125.305 46.8957 125.43 46.7703C125.554 46.6449 125.703 46.5454 125.867 46.4775C126.031 46.4096 126.207 46.3743 126.384 46.3743C126.745 46.3743 127.09 46.5163 127.345 46.7691C127.6 47.0218 127.743 47.3646 127.743 47.722V105.753C127.743 105.929 127.708 106.104 127.639 106.267C127.571 106.429 127.47 106.577 127.344 106.7C127.218 106.824 127.068 106.922 126.903 106.988C126.738 107.054 126.562 107.086 126.384 107.084ZM140.692 106.988C140.857 107.054 141.033 107.086 141.211 107.084C141.567 107.084 141.908 106.944 142.16 106.695C142.411 106.445 142.553 106.106 142.553 105.753V47.722C142.555 47.5458 142.522 47.3709 142.456 47.2075C142.389 47.0441 142.291 46.8957 142.166 46.7703C142.041 46.6449 141.892 46.5454 141.728 46.4775C141.565 46.4096 141.389 46.3743 141.211 46.3743C141.033 46.3743 140.856 46.4094 140.691 46.4771C140.526 46.5448 140.376 46.6439 140.25 46.7691C140.124 46.8942 140.024 47.0427 139.956 47.2062C139.887 47.3697 139.852 47.545 139.852 47.722V105.753C139.852 105.929 139.888 106.104 139.956 106.267C140.025 106.429 140.125 106.577 140.251 106.7C140.378 106.824 140.528 106.922 140.692 106.988ZM111.846 107.084C111.49 107.084 111.149 106.944 110.897 106.695C110.646 106.445 110.504 106.106 110.504 105.753V47.7219C110.483 47.5334 110.502 47.3429 110.56 47.1622C110.618 46.9815 110.714 46.815 110.842 46.6736C110.969 46.5322 111.125 46.4188 111.3 46.3413C111.474 46.2639 111.663 46.2241 111.855 46.2241C112.046 46.2241 112.235 46.2639 112.409 46.3413C112.584 46.4188 112.74 46.5322 112.868 46.6736C112.995 46.815 113.091 46.9815 113.149 47.1622C113.207 47.3429 113.226 47.5334 113.205 47.7219V105.753C113.205 105.929 113.17 106.104 113.101 106.266C113.033 106.429 112.932 106.577 112.806 106.7C112.679 106.824 112.529 106.922 112.365 106.988C112.2 107.054 112.024 107.086 111.846 107.084ZM24.1494 106.988C24.3141 107.054 24.4904 107.086 24.668 107.084C25.0239 107.084 25.3651 106.944 25.6168 106.695C25.8684 106.445 26.0098 106.106 26.0098 105.753V47.722C26.012 47.5458 25.979 47.3709 25.9125 47.2075C25.8461 47.0441 25.7477 46.8957 25.6228 46.7703C25.498 46.6449 25.3493 46.5454 25.1854 46.4775C25.0215 46.4096 24.8457 46.3743 24.668 46.3743C24.4896 46.3743 24.3129 46.4094 24.1481 46.4771C23.9832 46.5448 23.8334 46.6439 23.7073 46.7691C23.5811 46.8942 23.481 47.0427 23.4128 47.2062C23.3445 47.3697 23.3093 47.545 23.3093 47.722V105.753C23.3093 105.929 23.3446 106.104 23.4131 106.267C23.4816 106.429 23.5819 106.577 23.7083 106.7C23.8347 106.824 23.9846 106.922 24.1494 106.988ZM13.2039 44.1848C12.2204 44.1893 11.2787 44.5796 10.5848 45.2709C9.89096 45.9623 9.50143 46.8983 9.50144 47.8738V105.4C9.50591 106.372 9.89742 107.304 10.5908 107.991C11.2842 108.679 12.2233 109.068 13.2039 109.072H153.796C154.777 109.068 155.716 108.679 156.409 107.991C157.103 107.304 157.494 106.372 157.499 105.4V47.8738C157.499 46.8983 157.109 45.9623 156.415 45.2709C155.721 44.5796 154.78 44.1893 153.796 44.1848H13.2039Z" fill="url(#paint0_linear_2_2841)"/>
</g>
<defs>
<linearGradient id="paint0_linear_2_2841" x1="16.1569" y1="-4.5232" x2="64.6369" y2="149.624" gradientUnits="userSpaceOnUse">
<stop stop-color="#437FEC"/>
<stop offset="0.38" stop-color="#356FD8"/>
<stop offset="1" stop-color="#184EAE"/>
</linearGradient>
<clipPath id="clip0_2_2841">
<rect width="166" height="118" fill="white" transform="translate(0.5)"/>
</clipPath>
</defs>
</svg>
