<svg width="169" height="136" viewBox="0 0 169 136" fill="none" xmlns="http://www.w3.org/2000/svg">
<g id="Frame" clip-path="url(#clip0_2_2868)">
<path id="Union" fill-rule="evenodd" clip-rule="evenodd" d="M47.975 30.0044H105.97C107.759 30.0769 109.544 29.7423 111.216 29.021C112.889 28.2998 114.415 27.2067 115.704 25.8065C116.993 24.4062 118.018 22.7276 118.718 20.8713C119.418 19.015 119.779 17.0189 119.779 15.0021C119.779 12.9852 119.418 10.9891 118.718 9.13283C118.018 7.27654 116.993 5.59835 115.704 4.19812C114.415 2.79788 112.889 1.70433 111.216 0.98306C109.544 0.261794 107.759 -0.0723344 105.97 0.00019417H47.975C47.1105 0.00019417 46.2815 0.386702 45.6703 1.07504C45.0591 1.76338 44.7158 2.69695 44.7158 3.67041C44.7158 4.64387 45.0591 5.57745 45.6703 6.26578C45.9396 6.56907 46.2512 6.81386 46.5895 6.99282C47.4942 9.46334 47.961 12.1121 47.961 14.7894C47.961 17.5898 47.4503 20.3589 46.4619 22.9256C46.1101 23.093 45.7865 23.3285 45.5061 23.6222C45.1764 23.9675 44.9134 24.3857 44.7335 24.8506C44.5537 25.3155 44.4609 25.8171 44.4609 26.3242C44.4609 26.8313 44.5537 27.3329 44.7335 27.7978C44.9134 28.2627 45.1764 28.6809 45.5061 29.0263C45.8359 29.3716 46.2253 29.6365 46.6501 29.8048C47.0749 29.9731 47.5259 30.0411 47.975 30.0044ZM105.97 7.3411H54.4232C54.9961 9.74706 55.2889 12.2344 55.2889 14.7405C55.2889 17.422 54.9537 20.0821 54.2988 22.644H105.97C107.772 22.644 109.5 21.8378 110.774 20.4028C112.048 18.9679 112.764 17.0219 112.764 14.9926C112.764 12.9632 112.048 11.0168 110.774 9.58183C109.5 8.14688 107.772 7.3411 105.97 7.3411ZM47.2854 75.7587H131.647C132.754 75.7587 133.816 75.2632 134.598 74.3818C135.381 73.5005 135.821 72.3051 135.821 71.0587C135.821 69.8122 135.381 68.6169 134.598 67.7355C133.997 67.0584 133.231 66.6094 132.407 66.4376C131.204 62.9194 130.584 59.1768 130.584 55.3962C130.584 50.9971 131.423 46.6494 133.044 42.647L133.068 42.6013C133.085 42.5678 133.102 42.5341 133.119 42.5003C133.669 42.2668 134.175 41.9029 134.598 41.4257C135.381 40.5444 135.821 39.349 135.821 38.1026C135.821 36.8561 135.381 35.6608 134.598 34.7794C133.816 33.8981 132.754 33.403 131.647 33.403H47.2854C44.7679 33.3172 42.2606 33.8012 39.9124 34.8268C37.5642 35.8525 35.4229 37.3987 33.6151 39.3737C31.8074 41.3487 30.3702 43.7127 29.3888 46.3249C28.4073 48.9371 27.9016 51.7445 27.9016 54.5809C27.9016 57.4172 28.4073 60.2247 29.3888 62.8368C30.3702 65.449 31.8074 67.8125 33.6151 69.7875C35.4229 71.7626 37.5642 73.3088 39.9124 74.3344C42.2606 75.3601 44.7679 75.8446 47.2854 75.7587ZM47.0439 66.3591H122.825C121.942 62.8173 121.485 59.1466 121.476 55.446C121.466 51.1428 122.06 46.8762 123.228 42.8021H47.2854C44.5807 42.8855 42.0098 44.1453 40.1118 46.3168C38.2138 48.4884 37.1362 51.4032 37.105 54.45C37.0737 57.4968 38.0913 60.4387 39.9443 62.659C41.7973 64.8793 44.3417 66.2054 47.0439 66.3591ZM140.269 135.981H5.4138C4.73147 136.084 4.03743 136.022 3.37818 135.799C2.71892 135.575 2.10975 135.196 1.59148 134.685C1.07322 134.175 0.657848 133.545 0.373266 132.84C0.0886831 132.134 -0.0585938 131.367 -0.0585938 130.592C-0.0585938 129.816 0.0886831 129.05 0.373266 128.344C0.657848 127.638 1.07322 127.009 1.59148 126.499C2.10975 125.988 2.71892 125.608 3.37818 125.385C4.03743 125.161 4.73147 125.099 5.4138 125.203H5.5192C8.31176 119.334 9.67551 112.733 9.46733 106.073C9.48534 100.294 8.29159 94.5997 5.99109 89.4497H5.4138C4.73147 89.5531 4.03743 89.4912 3.37818 89.2677C2.71892 89.0442 2.10975 88.6643 1.59148 88.154C1.07322 87.6436 0.657848 87.0146 0.373266 86.3087C0.0886831 85.6027 -0.0585938 84.8361 -0.0585938 84.0608C-0.0585938 83.2855 0.0886831 82.519 0.373266 81.813C0.657848 81.107 1.07322 80.4781 1.59148 79.9677C2.10975 79.4573 2.71892 79.0774 3.37818 78.854C4.03743 78.6305 4.73147 78.5685 5.4138 78.6719H140.269C156.134 78.6719 169.068 91.5281 169.068 107.317C169.068 123.105 156.065 135.981 140.269 135.981ZM140.596 125.203H16.6513C18.8677 119.118 19.93 112.554 19.7452 105.937C19.7315 100.28 18.7977 94.6945 17.0073 89.4497H140.2C150.098 89.4497 158.152 97.5872 158.152 107.317C158.152 117.046 150.323 124.97 140.596 125.203ZM43.2845 103.044H132.647C133.013 103.044 133.364 102.88 133.623 102.589C133.882 102.298 134.027 101.902 134.027 101.49C134.027 101.287 133.991 101.086 133.922 100.899C133.852 100.711 133.75 100.541 133.622 100.399C133.494 100.256 133.341 100.143 133.174 100.067C133.007 99.9912 132.828 99.9536 132.647 99.9562H43.2845C42.9232 99.9562 42.5767 100.118 42.3212 100.406C42.0658 100.693 41.9221 101.084 41.9221 101.49C41.9221 101.899 42.0651 102.291 42.3201 102.582C42.5751 102.873 42.9216 103.039 43.2845 103.044ZM92.9842 112.657H43.8017C43.4358 112.657 43.0849 112.493 42.8262 112.202C42.5675 111.911 42.4221 111.516 42.4221 111.104C42.4221 110.9 42.4579 110.699 42.5275 110.512C42.597 110.324 42.6989 110.154 42.8272 110.012C42.9556 109.869 43.1078 109.756 43.2751 109.68C43.4424 109.604 43.6213 109.567 43.8017 109.569H92.9842C93.1645 109.567 93.3435 109.604 93.5108 109.68C93.6781 109.756 93.8304 109.869 93.9587 110.012C94.0871 110.154 94.189 110.324 94.2585 110.512C94.328 110.699 94.3638 110.9 94.3638 111.104C94.3638 111.516 94.2183 111.911 93.9596 112.202C93.7009 112.493 93.3501 112.657 92.9842 112.657ZM58.046 50.4734H107.246C107.427 50.4734 107.606 50.4329 107.774 50.3548C107.941 50.2768 108.093 50.1625 108.221 50.0182C108.349 49.8739 108.451 49.7027 108.52 49.5142C108.59 49.3257 108.625 49.1237 108.625 48.9197C108.625 48.7165 108.589 48.5154 108.52 48.3279C108.45 48.1405 108.348 47.9705 108.22 47.8277C108.092 47.685 107.94 47.5723 107.772 47.4963C107.605 47.4204 107.426 47.3828 107.246 47.3854H58.046C57.6847 47.3854 57.3382 47.5471 57.0827 47.8349C56.8272 48.1226 56.6837 48.5128 56.6837 48.9197C56.6814 49.1228 56.7149 49.3244 56.7823 49.5128C56.8498 49.7012 56.9498 49.8723 57.0765 50.0168C57.2032 50.1613 57.3543 50.2765 57.5207 50.3548C57.6871 50.4332 57.8656 50.4734 58.046 50.4734ZM68.0825 58.3771H42.9912C42.8109 58.3796 42.6318 58.3421 42.4646 58.2661C42.2973 58.1902 42.145 58.0774 42.0167 57.9347C41.8884 57.792 41.7865 57.6219 41.7169 57.4345C41.6474 57.2471 41.6116 57.0464 41.6116 56.8433C41.6116 56.4312 41.7569 56.0361 42.0156 55.7447C42.2744 55.4534 42.6254 55.2896 42.9912 55.2896H68.0825C68.4484 55.2896 68.7993 55.4534 69.058 55.7447C69.3168 56.0361 69.4621 56.4312 69.4621 56.8433C69.4621 57.0464 69.4263 57.2471 69.3568 57.4345C69.2872 57.6219 69.1853 57.792 69.057 57.9347C68.9286 58.0774 68.7764 58.1902 68.6091 58.2661C68.4418 58.3421 68.2629 58.3796 68.0825 58.3771ZM64.0645 16.546H89.173C89.366 16.5704 89.5614 16.5484 89.7464 16.482C89.9313 16.4155 90.1018 16.3058 90.2465 16.16C90.3913 16.0143 90.5071 15.8357 90.5864 15.6361C90.6657 15.4365 90.7066 15.2204 90.7066 15.0018C90.7066 14.7831 90.6657 14.567 90.5864 14.3674C90.5071 14.1678 90.3913 13.9892 90.2465 13.8435C90.1018 13.6977 89.9313 13.588 89.7464 13.5215C89.5614 13.4551 89.366 13.4336 89.173 13.458H64.0645C63.7273 13.5006 63.416 13.6815 63.1899 13.9663C62.9638 14.2511 62.8389 14.6197 62.8389 15.0018C62.8389 15.3838 62.9638 15.7524 63.1899 16.0372C63.416 16.3221 63.7273 16.5033 64.0645 16.546Z" fill="url(#paint0_linear_2_2868)"/>
</g>
<defs>
<linearGradient id="paint0_linear_2_2868" x1="15.8932" y1="-5.22421" x2="77.5808" y2="168.113" gradientUnits="userSpaceOnUse">
<stop stop-color="#437FEC"/>
<stop offset="0.38" stop-color="#356FD8"/>
<stop offset="1" stop-color="#184EAE"/>
</linearGradient>
<clipPath id="clip0_2_2868">
<rect width="169" height="136" fill="white"/>
</clipPath>
</defs>
</svg>
