<svg width="147" height="123" viewBox="0 0 147 123" fill="none" xmlns="http://www.w3.org/2000/svg">
<g id="Frame" clip-path="url(#clip0_2_2829)">
<path id="Union" fill-rule="evenodd" clip-rule="evenodd" d="M4.76131 105.036C3.51466 105.026 2.32256 104.521 1.44604 103.631C0.569521 102.74 0.080011 101.538 0.0847509 100.286L0.511491 4.71409C0.520845 3.4636 1.02089 2.26721 1.90306 1.38463C2.78524 0.502042 3.97842 0.00466595 5.22364 0C6.47028 0.00943984 7.66239 0.514392 8.53891 1.40468C9.41543 2.29497 9.90494 3.49787 9.9002 4.74984L9.45566 100.321C9.45098 101.57 8.95483 102.766 8.07548 103.649C7.19614 104.533 6.00488 105.031 4.76131 105.036ZM142.288 123L4.71204 122.535C3.46231 122.535 2.26376 122.037 1.38007 121.15C0.496375 120.262 0 119.059 0 117.803C0 116.548 0.496375 115.345 1.38007 114.457C2.26376 113.57 3.46231 113.072 4.71204 113.072L142.288 113.553C143.485 113.627 144.609 114.157 145.431 115.035C146.253 115.913 146.711 117.072 146.711 118.277C146.711 119.481 146.253 120.641 145.431 121.518C144.609 122.396 143.485 122.926 142.288 123ZM18.5994 104.554C18.8606 104.653 19.1382 104.701 19.4174 104.696C19.8977 104.7 20.3674 104.555 20.7622 104.28C21.1569 104.005 21.4573 103.614 21.6223 103.161L32.1483 74.594L51.1753 98.1605C51.2862 98.2984 51.412 98.4229 51.55 98.5319C51.5558 98.5452 51.5617 98.5585 51.5678 98.5718C51.8274 99.1401 52.2998 99.5826 52.8824 99.8034C53.1425 99.9083 53.42 99.9629 53.7003 99.9642C54.1717 99.9708 54.6343 99.8348 55.0276 99.5736C55.4209 99.3124 55.7267 98.9381 55.9053 98.4998L75.8478 44.2343L91.0593 64.3753C91.2691 64.6523 91.5374 64.8792 91.8448 65.0397C92.1523 65.2003 92.4912 65.2906 92.8375 65.3039C93.3815 65.3227 93.9153 65.1524 94.3488 64.8218C94.5974 64.637 94.8068 64.4042 94.9649 64.1373C95.1229 63.8704 95.2266 63.5746 95.2696 63.2671C95.2854 63.1544 95.2929 63.041 95.2922 62.9277L112.877 16.4823C113.045 15.9082 112.991 15.2917 112.726 14.7559C112.46 14.2201 112.003 13.8044 111.446 13.5923C110.889 13.3802 110.273 13.3874 109.721 13.6119C109.168 13.8365 108.721 14.2623 108.467 14.8039L92.1264 57.9632L77.2786 38.3037C76.9013 37.8041 76.342 37.4753 75.7234 37.3899C75.1048 37.3045 74.4777 37.4697 73.9802 37.8486C73.7063 38.0571 73.484 38.321 73.3253 38.6197C73.1994 38.7109 73.0824 38.8147 72.9763 38.9295C72.7662 39.1569 72.6029 39.4235 72.4955 39.7143L52.944 92.8322L33.5004 68.7499C33.3154 68.4801 33.0769 68.2516 32.7999 68.0789C32.5228 67.9062 32.213 67.793 31.8903 67.7463C31.5675 67.6995 31.2386 67.7203 30.9242 67.8073C30.6098 67.8943 30.3167 68.0457 30.0634 68.252C30.0008 68.3029 29.941 68.357 29.8841 68.4138C29.729 68.5184 29.5866 68.6413 29.46 68.7803C29.2508 69.0099 29.089 69.2788 28.9838 69.5716L17.2125 101.518C16.9992 102.105 17.0251 102.754 17.2848 103.322C17.5444 103.891 18.0168 104.333 18.5994 104.554Z" fill="url(#paint0_linear_2_2829)"/>
</g>
<defs>
<linearGradient id="paint0_linear_2_2829" x1="13.8376" y1="-4.71486" x2="71.4123" y2="150.501" gradientUnits="userSpaceOnUse">
<stop stop-color="#437FEC"/>
<stop offset="0.38" stop-color="#356FD8"/>
<stop offset="1" stop-color="#184EAE"/>
</linearGradient>
<clipPath id="clip0_2_2829">
<rect width="147" height="123" fill="white"/>
</clipPath>
</defs>
</svg>
