<svg width="89" height="122" viewBox="0 0 89 122" fill="none" xmlns="http://www.w3.org/2000/svg">
<g id="Frame 18" clip-path="url(#clip0_2_2884)">
<path id="Union" fill-rule="evenodd" clip-rule="evenodd" d="M18.1036 0H75.0684C76.8847 0 78.6832 0.357043 80.3612 1.051C82.0392 1.74496 83.5639 2.76245 84.8482 4.04472C86.1324 5.32699 87.1512 6.84897 87.8463 8.52433C88.5413 10.1997 88.899 11.9954 88.899 13.8088V91.7942C88.899 95.4565 87.4419 98.9691 84.8482 101.559C82.2544 104.148 78.7365 105.603 75.0684 105.603H37.8468C39.5589 102.828 40.6116 99.6991 40.9241 96.455H75.0684C76.3064 96.455 77.4937 95.9636 78.3691 95.0896C79.2445 94.2156 79.7363 93.0302 79.7363 91.7942V13.8088C79.7363 12.5728 79.2445 11.3874 78.3691 10.5134C77.4937 9.63939 76.3064 9.14844 75.0684 9.14844H18.1036C16.8656 9.14844 15.6783 9.63939 14.8029 10.5134C13.9275 11.3874 13.4358 12.5728 13.4358 13.8088V70.3042C10.1669 70.8892 7.05012 72.1283 4.27295 73.9465V13.8088C4.27295 10.1465 5.73014 6.63438 8.32388 4.04472C10.9176 1.45506 14.4355 0 18.1036 0ZM73.1322 76.5012H33.3691C34.2534 77.3499 35.0686 78.2678 35.8068 79.2459H73.1667C73.5335 79.2459 73.8853 79.1003 74.1447 78.8413C74.4041 78.5824 74.5498 78.2312 74.5498 77.8649C74.5499 77.6814 74.513 77.4995 74.4411 77.3306C74.3693 77.1617 74.2639 77.0091 74.1316 76.8818C73.9992 76.7544 73.8425 76.6551 73.6707 76.5897C73.499 76.5243 73.3158 76.4943 73.1322 76.5012ZM60.2698 87.8932H40.0598C40.3144 88.7956 40.5165 89.7121 40.6649 90.6378H60.2698C60.6366 90.6378 60.9884 90.4922 61.2477 90.2333C61.5071 89.9743 61.6528 89.6231 61.6528 89.2569C61.6529 89.0763 61.617 88.8975 61.5473 88.7309C61.4776 88.5644 61.3754 88.4136 61.2467 88.2868C61.1181 88.1599 60.9655 88.0597 60.7978 87.9922C60.6301 87.9247 60.4506 87.8909 60.2698 87.8932ZM11.9664 108.986L13.0282 110.226C12.9104 110.15 12.8032 110.058 12.7098 109.953L11.8946 108.994L11.9664 108.986ZM9.02738 108.589C9.04087 108.617 9.05553 108.645 9.0713 108.671C8.82133 108.52 8.61983 108.3 8.49148 108.037L7.89602 106.819L8.19758 106.863L9.02738 108.589ZM5.08569 118.169C6.03654 114.406 6.98744 110.625 7.74175 106.796L6.33041 106.587C6.11693 106.554 5.91853 106.457 5.76119 106.309C5.60385 106.161 5.49495 105.969 5.44875 105.758L5.0684 103.911L3.33958 103.204C3.137 103.119 2.96536 102.974 2.84786 102.789C2.73036 102.604 2.67267 102.387 2.68261 102.168V100.287L1.17854 99.1646C1.00803 99.0311 0.88206 98.8494 0.817246 98.6429C0.752433 98.4364 0.751783 98.2151 0.815452 98.0082L1.35144 96.2821L0.1931 94.8148C0.0674044 94.6351 0 94.4212 0 94.202C0 93.9829 0.0674044 93.769 0.1931 93.5893L1.17854 92.0014L0.400551 90.2753C0.315406 90.077 0.291307 89.8578 0.33133 89.6457C0.371353 89.4336 0.473697 89.2383 0.625307 89.0844L1.97379 87.7726L1.66261 85.9255C1.62082 85.7103 1.6485 85.4873 1.7417 85.2888C1.8349 85.0902 1.9888 84.9266 2.18124 84.821L3.80634 83.8888L3.96193 82.0245C3.9785 81.8057 4.06204 81.5972 4.20119 81.4274C4.34035 81.2575 4.52841 81.1346 4.73992 81.0751L6.46875 80.5917L7.07385 78.8656C7.14435 78.6588 7.27656 78.4785 7.45272 78.3489C7.62887 78.2193 7.84051 78.1467 8.05924 78.1408H9.94371L10.981 76.5874C11.0748 76.4388 11.205 76.3163 11.3592 76.2318C11.5135 76.1472 11.6867 76.1033 11.8627 76.1041H11.9145L13.7298 76.5529L15.1302 75.2928C15.2241 75.2022 15.3351 75.1308 15.4568 75.0834C15.5785 75.036 15.7084 75.0132 15.839 75.0164C16.0137 75.0131 16.1863 75.0549 16.3403 75.1374L18.0692 76.0177L19.798 75.1374C19.952 75.0549 20.1246 75.0131 20.2994 75.0164C20.4299 75.0132 20.5599 75.036 20.6816 75.0834C20.8032 75.1308 20.9143 75.2022 21.0082 75.2928L22.4085 76.5529L24.2411 76.1041H24.4831C24.6591 76.1033 24.8323 76.1472 24.9866 76.2318C25.1408 76.3163 25.271 76.4388 25.3648 76.5874L26.4021 78.1408H28.2865C28.5059 78.1442 28.7187 78.216 28.8954 78.346C29.072 78.4759 29.2037 78.6574 29.272 78.8656L29.8771 80.5917L31.6923 81.0751C31.9038 81.1346 32.0919 81.2575 32.2311 81.4274C32.3702 81.5972 32.4538 81.8057 32.4703 82.0245L32.6259 83.8888L34.251 84.821C34.4434 84.9266 34.5973 85.0902 34.6905 85.2888C34.7838 85.4873 34.8114 85.7103 34.7696 85.9255L34.4585 87.7726L35.8069 89.0844C35.9627 89.2356 36.0679 89.4313 36.1081 89.6445C36.1484 89.8577 36.1217 90.0779 36.0317 90.2753L35.2537 92.0014L36.2391 93.5893C36.3648 93.769 36.4322 93.9829 36.4322 94.202C36.4322 94.4212 36.3648 94.6351 36.2391 94.8148L35.0636 96.2821L35.6167 98.0082C35.6738 98.217 35.6681 98.4381 35.6005 98.6437C35.5329 98.8493 35.4063 99.0302 35.2364 99.1646L33.7323 100.287L33.8188 102.168C33.8287 102.387 33.7711 102.604 33.6536 102.789C33.5361 102.974 33.3644 103.119 33.1618 103.204L31.433 103.911L31.0354 105.758C30.9914 105.97 30.8832 106.164 30.7255 106.312C30.5677 106.46 30.368 106.556 30.1536 106.587L28.5068 106.831C29.2384 110.621 30.1158 114.401 31.1389 118.169C29.1335 117.72 27.1281 117.237 25.1227 116.737C23.6013 118.135 22.0972 119.55 20.6104 121.017C19.7452 117.828 18.9761 114.617 18.303 111.385C18.2828 111.386 18.2624 111.386 18.2421 111.386C18.1422 111.386 18.0434 111.372 17.9486 111.345C17.287 114.58 16.483 117.815 15.6143 121.017C14.1275 119.55 12.6234 118.135 11.102 116.737C9.09659 117.237 7.09113 117.72 5.08569 118.169ZM28.2865 106.863L28.3878 106.848L27.785 108.037C27.7248 108.163 27.6479 108.278 27.5568 108.381L28.2865 106.863ZM18.1383 108.589C15.0781 108.589 12.0865 107.683 9.542 105.986C6.99747 104.288 5.01423 101.875 3.84311 99.0525C2.672 96.2296 2.36558 93.1233 2.96261 90.1266C3.55964 87.1298 5.03332 84.3772 7.19725 82.2167C9.36119 80.0561 12.1182 78.5851 15.1197 77.989C18.1212 77.393 21.2323 77.6988 24.0596 78.8681C26.8869 80.0374 29.3035 82.0175 31.0037 84.558C32.7038 87.0985 33.6113 90.0851 33.6113 93.1405C33.5886 97.2308 31.9511 101.147 29.0543 104.039C26.1574 106.932 22.235 108.567 18.1383 108.589ZM32.4357 19.6261H59.0596C59.2413 19.6261 59.4211 19.5902 59.5889 19.5208C59.7567 19.4514 59.9092 19.3498 60.0376 19.2216C60.1661 19.0933 60.2679 18.9411 60.3374 18.7736C60.4069 18.6061 60.4427 18.4265 60.4427 18.2451C60.4427 18.0646 60.4068 17.8858 60.3371 17.7192C60.2674 17.5526 60.1652 17.4015 60.0366 17.2746C59.9079 17.1478 59.7553 17.0476 59.5876 16.9801C59.4199 16.9126 59.2404 16.8792 59.0596 16.8815H32.4357C32.0735 16.8815 31.7261 17.0252 31.47 17.281C31.2139 17.5367 31.0699 17.8835 31.0699 18.2451C31.0676 18.4257 31.1013 18.6049 31.1689 18.7723C31.2365 18.9398 31.3368 19.0918 31.4638 19.2203C31.5909 19.3488 31.7422 19.4512 31.9091 19.5208C32.0759 19.5904 32.2549 19.6261 32.4357 19.6261ZM73.1323 30.7077H20.6451C20.4643 30.7077 20.2853 30.6719 20.1185 30.6023C19.9517 30.5327 19.8003 30.4307 19.6733 30.3023C19.5462 30.1738 19.4459 30.0213 19.3783 29.8539C19.3107 29.6864 19.2771 29.5072 19.2794 29.3267C19.2794 28.965 19.4233 28.6182 19.6794 28.3625C19.9356 28.1068 20.2829 27.963 20.6451 27.963H73.1323C73.3132 27.9607 73.4926 27.9945 73.6603 28.062C73.828 28.1295 73.9806 28.2297 74.1093 28.3566C74.238 28.4834 74.3401 28.6342 74.4098 28.8008C74.4795 28.9673 74.5154 29.1462 74.5154 29.3267C74.5154 29.6929 74.3697 30.0441 74.1103 30.3031C73.8509 30.5621 73.4992 30.7077 73.1323 30.7077ZM20.6451 42.0309H73.1323C73.4992 42.0309 73.8509 41.8853 74.1103 41.6263C74.3697 41.3674 74.5154 41.0162 74.5154 40.6499C74.5154 40.4694 74.4795 40.2906 74.4098 40.124C74.3401 39.9574 74.238 39.8063 74.1093 39.6794C73.9806 39.5526 73.828 39.4528 73.6603 39.3853C73.4926 39.3178 73.3132 39.284 73.1323 39.2862H20.6451C20.2829 39.2862 19.9356 39.43 19.6794 39.6857C19.4233 39.9415 19.2794 40.2883 19.2794 40.6499C19.2771 40.8305 19.3107 41.0097 19.3783 41.1771C19.4459 41.3446 19.5462 41.497 19.6733 41.6255C19.8003 41.754 19.9517 41.8559 20.1185 41.9255C20.2853 41.9952 20.4643 42.0309 20.6451 42.0309ZM73.1323 54.1828H20.6451C20.4643 54.1828 20.2853 54.1466 20.1185 54.077C19.9517 54.0074 19.8003 53.9054 19.6733 53.7769C19.5462 53.6485 19.4459 53.4964 19.3783 53.329C19.3107 53.1615 19.2771 52.9823 19.2794 52.8018C19.2794 52.4401 19.4233 52.0933 19.6794 51.8376C19.9356 51.5819 20.2829 51.4381 20.6451 51.4381H73.1323C73.3132 51.4358 73.4926 51.4692 73.6603 51.5367C73.828 51.6042 73.9806 51.7044 74.1093 51.8313C74.238 51.9581 74.3401 52.1093 74.4098 52.2759C74.4795 52.4424 74.5154 52.6213 74.5154 52.8018C74.5154 53.168 74.3697 53.5192 74.1103 53.7782C73.8509 54.0372 73.4992 54.1828 73.1323 54.1828ZM20.6451 66.3342H73.1323C73.4992 66.3342 73.8509 66.189 74.1103 65.9301C74.3697 65.6711 74.5154 65.3199 74.5154 64.9536C74.5154 64.7731 74.4795 64.5943 74.4098 64.4277C74.3401 64.2611 74.238 64.11 74.1093 63.9831C73.9806 63.8563 73.828 63.7561 73.6603 63.6886C73.4926 63.6211 73.3132 63.5877 73.1323 63.59H20.6451C20.2829 63.59 19.9356 63.7337 19.6794 63.9895C19.4233 64.2452 19.2794 64.592 19.2794 64.9536C19.2771 65.1342 19.3107 65.3134 19.3783 65.4808C19.4459 65.6483 19.5462 65.8003 19.6733 65.9288C19.8003 66.0572 19.9517 66.1592 20.1185 66.2288C20.2853 66.2984 20.4643 66.3342 20.6451 66.3342ZM17.5485 98.3551L13.2804 90.1026C13.0999 89.8017 12.8114 89.5808 12.4736 89.4844C12.1357 89.3881 11.7739 89.4239 11.4614 89.5843C11.149 89.7447 10.9093 90.0175 10.7912 90.3479C10.6731 90.6783 10.6853 91.041 10.8254 91.3627L16.2712 101.892C16.3897 102.115 16.5664 102.302 16.7825 102.432C16.9986 102.563 17.2461 102.633 17.4987 102.634C17.5809 102.634 17.6626 102.626 17.7428 102.611C17.9527 102.593 18.156 102.526 18.3372 102.417C18.5536 102.286 18.73 102.099 18.847 101.875L26.2118 87.3755C26.3358 87.0561 26.3365 86.7021 26.2138 86.3822C26.0911 86.0624 25.8537 85.7997 25.5477 85.6448C25.2418 85.4899 24.8891 85.4539 24.5581 85.544C24.2272 85.6342 23.9416 85.8441 23.7568 86.1328L17.5485 98.3551Z" fill="url(#paint0_linear_2_2884)"/>
</g>
<defs>
<linearGradient id="paint0_linear_2_2884" x1="8.38486" y1="-4.63887" x2="85.1658" y2="122.843" gradientUnits="userSpaceOnUse">
<stop stop-color="#437FEC"/>
<stop offset="0.38" stop-color="#356FD8"/>
<stop offset="1" stop-color="#184EAE"/>
</linearGradient>
<clipPath id="clip0_2_2884">
<rect width="89" height="122" fill="white"/>
</clipPath>
</defs>
</svg>
