<svg width="173" height="88" viewBox="0 0 173 88" fill="none" xmlns="http://www.w3.org/2000/svg">
<g id="Frame" clip-path="url(#clip0_2_2859)">
<path id="Union" fill-rule="evenodd" clip-rule="evenodd" d="M92.6029 75.4915C101.821 83.8266 113.884 88.321 126.316 88.0527C132.54 88.1849 138.729 87.0836 144.524 84.8128C150.32 82.542 155.608 79.1467 160.082 74.8227C167.918 67.0862 172.402 56.5875 172.57 45.5834C172.738 39.5993 171.713 33.6412 169.553 28.0566C167.394 22.472 164.145 17.3724 159.994 13.0541C154.164 7.2132 143.595 0.175891 126.369 0.175891C114.254 -0.0599623 102.52 4.41185 93.6421 12.649C91.2438 14.8247 89.0123 17.177 86.9664 19.6862C85.0517 17.3548 82.9739 15.162 80.7487 13.1241C71.5339 4.53038 59.3229 -0.128314 46.7186 0.140671C40.2561 0.0842434 33.8438 1.27913 27.8364 3.65926C22.2039 5.92615 17.114 9.35528 12.8998 13.7224C4.84015 22.2857 0.42023 33.6376 0.570097 45.3897C0.548362 51.2983 1.79482 57.1428 4.22554 62.5295C6.65627 67.9163 10.2148 72.7201 14.6612 76.6172C22.9262 83.9258 33.5664 87.9893 44.6049 88.0527C57.4902 88.3696 70.0566 84.0276 79.9913 75.8256C82.3706 73.8572 84.6018 71.7166 86.667 69.4216C88.5109 71.5719 90.4938 73.5998 92.6029 75.4915ZM98.345 69.0346C95.3774 66.3431 92.6813 63.3673 90.2954 60.15L78.7935 42.4694C75.0065 36.5406 70.7968 30.4884 65.6359 26.354C60.3033 22.008 53.5805 19.7283 46.701 19.9328C38.1054 19.9328 31.0775 22.8533 26.3745 28.3599C22.4534 33.1553 20.3569 39.1814 20.4562 45.3721C20.4562 58.9891 32.9445 68.1549 44.6049 68.1549C51.8825 68.4037 59.0507 66.3337 65.0723 62.2439C68.8453 59.4858 72.1873 56.1833 74.9889 52.4445L81.4356 62.3144C79.341 64.7895 77.0304 67.0736 74.531 69.1402C66.1196 76.0646 55.4833 79.7143 44.5873 79.4147C35.6827 79.3458 27.1043 76.0585 20.4387 70.1608C16.8936 67.0749 14.0528 63.265 12.1081 58.9886C10.1633 54.7123 9.15998 50.0689 9.1657 45.3721C9.00659 35.8246 12.5688 26.5893 19.1 19.6162C22.4726 16.1299 26.5413 13.3905 31.0422 11.5761C36.0216 9.61859 41.3324 8.6387 46.6833 8.69061C57.1192 8.45982 67.2323 12.311 74.8656 19.4225C78.0285 22.3586 80.8795 25.613 83.3732 29.1338L93.5364 44.8795L95.0688 47.2371C103.418 60.1503 111.644 68.1373 126.316 68.1373C144.441 68.1373 152.596 54.8195 152.596 45.3721C152.837 38.5863 150.387 31.9797 145.779 26.9876C141.182 22.3078 134.647 19.9504 126.316 19.9504C119.65 19.7537 113.146 22.0213 108.05 26.3188C104.474 29.4482 101.345 33.0534 98.7501 37.0331L92.1978 26.8819C94.3407 24.0194 96.7466 21.363 99.3842 18.9474C106.692 12.1749 116.349 8.5034 126.316 8.70822C140.566 8.70822 149.126 14.3206 153.794 19.0355C157.14 22.5482 159.753 26.6897 161.483 31.22C163.213 35.7503 164.024 40.5789 163.869 45.4249C163.722 54.1528 160.148 62.4736 153.917 68.5947C150.261 72.1322 145.939 74.9113 141.202 76.7714C136.464 78.6315 131.405 79.536 126.316 79.4323C116.005 79.6587 105.999 75.9386 98.345 69.0346ZM126.316 59.5345C115.994 59.5345 110.481 54.6084 103.876 44.8971V44.8266C111.432 33.356 116.452 28.518 126.298 28.5707C132.234 28.5707 136.708 30.0662 139.614 33.0042C142.628 36.3772 144.179 40.8056 143.93 45.3193V45.4602C143.93 51.2658 138.487 59.5345 126.316 59.5345ZM29.0518 45.3897C29.0518 41.4489 30.3376 28.5884 46.6657 28.5884V28.5179C57.146 28.5179 62.6768 33.7433 69.8985 44.6686C63.0643 54.2743 56.7585 59.4641 44.552 59.4641C37.0661 59.4641 29.0518 53.8519 29.0518 45.3897Z" fill="url(#paint0_linear_2_2859)"/>
</g>
<defs>
<linearGradient id="paint0_linear_2_2859" x1="16.7913" y1="-3.24127" x2="43.9548" y2="116.856" gradientUnits="userSpaceOnUse">
<stop stop-color="#437FEC"/>
<stop offset="0.38" stop-color="#356FD8"/>
<stop offset="1" stop-color="#184EAE"/>
</linearGradient>
<clipPath id="clip0_2_2859">
<rect width="172" height="88" fill="white" transform="translate(0.5)"/>
</clipPath>
</defs>
</svg>
