<svg width="145" height="121" viewBox="0 0 145 121" fill="none" xmlns="http://www.w3.org/2000/svg">
<g id="Personal goals" clip-path="url(#clip0_2_2922)">
<path id="Union" fill-rule="evenodd" clip-rule="evenodd" d="M14.4223 16.337L14.3561 0L24.271 19.4534L39.9069 29.3271C41.7902 26.6552 43.9032 24.1362 46.2293 21.8011C54.3251 13.6744 64.6397 8.14023 75.8687 5.89807C87.0978 3.65592 98.7371 4.80667 109.315 9.20482C119.892 13.603 128.933 21.051 135.294 30.6071C141.654 40.1631 145.05 51.3977 145.05 62.8906C145.05 78.3021 138.951 93.0825 128.095 103.98C117.239 114.878 102.515 121 87.1621 121C75.713 121 64.521 117.592 55.0014 111.207C45.4819 104.822 38.0623 95.7463 33.6809 85.1282C29.2996 74.5102 28.1532 62.8262 30.3868 51.5541C31.6901 44.9769 34.11 38.7123 37.5079 33.0203L22.6003 23.6065L0 23.8912L14.4223 16.337ZM41.8253 44.106C42.7335 41.9049 43.7958 39.7821 45.0004 37.7516L54.0266 43.4514C51.8748 47.138 50.3369 51.1779 49.497 55.4133C48.0138 62.892 48.7733 70.6441 51.6796 77.6894C54.5858 84.7347 59.5082 90.7565 65.8241 94.9933C72.14 99.2301 79.5658 101.492 87.1621 101.492C97.342 101.483 107.103 97.4208 114.302 90.1965C121.502 82.9723 125.553 73.1759 125.566 62.957C125.57 55.3316 123.32 47.8764 119.102 41.5345C114.884 35.1926 108.887 30.2486 101.87 27.3282C94.8531 24.4078 87.1308 23.642 79.68 25.1277C72.2292 26.6133 65.3846 30.2837 60.012 35.6746C58.7283 36.9627 57.5423 38.3352 56.4606 39.7802L47.4147 34.068C50.8122 29.3577 55.0318 25.2635 59.899 21.9989C67.9689 16.5861 77.4565 13.6972 87.1621 13.6972C100.173 13.7104 112.647 18.9042 121.847 28.1394C131.047 37.3745 136.221 49.8965 136.234 62.9571C136.234 72.6998 133.356 82.2235 127.964 90.3242C122.572 98.425 114.908 104.739 105.941 108.467C96.9744 112.196 87.1076 113.171 77.5886 111.27C68.0695 109.37 59.3257 104.678 52.4629 97.7889C45.6 90.8998 40.9263 82.1227 39.0329 72.5672C37.1394 63.0117 38.1111 53.1071 41.8253 44.106ZM59.7645 51.565C60.2524 50.3824 60.814 49.2372 61.4441 48.1354L79.6499 59.6319C79.2263 60.6473 78.9917 61.7659 78.9917 62.9407C78.9917 67.5804 82.6497 71.3417 87.1621 71.3417C91.6745 71.3417 95.3325 67.5804 95.3325 62.9407C95.3325 58.301 91.6745 54.5398 87.1621 54.5398C85.3701 54.5398 83.7128 55.133 82.3659 56.1388L63.9083 44.4833C65.8175 42.0617 68.1009 39.9399 70.6866 38.2055C75.5634 34.9345 81.2969 33.1886 87.1621 33.1886C95.0258 33.193 102.566 36.3306 108.126 41.9123C113.687 47.494 116.813 55.0633 116.817 62.957C116.817 68.8447 115.078 74.6002 111.819 79.4956C108.561 84.391 103.929 88.2065 98.5106 90.4596C93.0919 92.7127 87.1292 93.3021 81.3767 92.1535C75.6242 91.0049 70.3402 88.1698 66.1928 84.0066C62.0455 79.8434 59.2212 74.5392 58.0769 68.7647C56.9327 62.9902 57.52 57.0045 59.7645 51.565Z" fill="url(#paint0_linear_2_2922)"/>
</g>
<defs>
<linearGradient id="paint0_linear_2_2922" x1="13.6809" y1="-4.6382" x2="70.1046" y2="148.238" gradientUnits="userSpaceOnUse">
<stop stop-color="#437FEC"/>
<stop offset="0.38" stop-color="#356FD8"/>
<stop offset="1" stop-color="#184EAE"/>
</linearGradient>
<clipPath id="clip0_2_2922">
<rect width="145" height="121" fill="white"/>
</clipPath>
</defs>
</svg>
