<svg width="105" height="119" viewBox="0 0 105 119" fill="none" xmlns="http://www.w3.org/2000/svg">
<g id="Sync-up calls" clip-path="url(#clip0_2_2985)">
<path id="Vector" d="M79.6019 8.89794C85.9976 8.89794 91.3525 16.6518 92.1079 17.6778C95.1751 22.5342 96.5559 28.2695 96.0359 33.9929C95.6533 38.4087 94.571 42.7353 92.8297 46.8098C88.7773 58.8644 82.5717 70.0804 74.5156 79.911C63.47 93.7874 53.1798 101.188 44.7026 105.528C42.0574 107.083 39.2407 108.324 36.3093 109.228C34.1462 109.774 31.9261 110.062 29.6954 110.086H28.7386C20.0599 109.682 9.19902 103.526 8.96401 96.142C8.9239 94.3547 9.42105 92.5966 10.3909 91.096L21.6882 76.8834C22.3223 76.0793 23.1313 75.431 24.0536 74.9879C24.9758 74.5448 25.9868 74.3187 27.0096 74.3268C28.5472 74.3203 30.0405 74.843 31.2398 75.8071L42.5539 84.8223C48.9455 79.9663 54.6936 74.3142 59.6594 68.0025C65.5162 60.6417 70.3656 52.5304 74.0791 43.8832L63.3189 35.3386C62.612 34.7876 62.0222 34.1003 61.5843 33.3174C61.1464 32.5346 60.8692 31.6719 60.7691 30.7801C60.669 29.8883 60.748 28.9857 61.0014 28.1249C61.2548 27.2641 61.6775 26.4628 62.2446 25.7682L73.5419 11.5556C74.7875 10.2976 76.3658 9.42224 78.0911 9.03263C78.5885 8.93234 79.0946 8.88149 79.6019 8.8811V8.89794ZM79.6019 -0.0166322C78.514 -0.0203039 77.4284 0.0866725 76.3621 0.302845C72.9533 1.02094 69.8235 2.70889 67.3477 5.16399L66.928 5.56765L66.5755 6.00498L55.2782 20.2176C52.6931 23.484 51.5049 27.6435 51.9736 31.7857C52.4424 35.9279 54.53 39.7152 57.7794 42.3186L62.9496 46.4398C60.0754 52.1146 56.6213 57.4752 52.6427 62.4355C49.5554 66.3681 46.1228 70.0157 42.3861 73.3346L36.7122 68.8266C35.1021 67.5394 33.2547 66.5829 31.2754 66.0113C29.2962 65.4397 27.2239 65.2644 25.177 65.4955C23.1302 65.7267 21.1488 66.3599 19.3462 67.3586C17.5436 68.3573 15.9551 69.7018 14.6714 71.3159L3.37408 85.529L3.00477 86L2.68582 86.5043C0.848257 89.4684 -0.085232 92.9061 -1.64043e-05 96.3945C0.218209 102.786 4.02875 108.723 10.7434 113.214C15.9765 116.641 22.0113 118.641 28.2518 119.017C28.705 119.017 29.175 119.017 29.6283 119.017C32.5895 119 35.5377 118.622 38.4076 117.89C41.6083 117.017 44.6874 115.745 47.5731 114.106L48.7482 113.483C60.6163 107.411 71.3261 98.2447 81.4652 85.4953C90.184 74.8296 96.9009 62.6683 101.29 49.6017C101.424 49.1812 101.626 48.6431 101.861 48.0039C103.604 43.6686 104.636 39.079 104.916 34.4134C105.535 26.7707 103.617 19.1374 99.4604 12.6992C96.8585 8.89795 89.741 0.0338764 79.6019 0.0338764V-0.0166322Z" fill="url(#paint0_linear_2_2985)"/>
</g>
<defs>
<linearGradient id="paint0_linear_2_2985" x1="9.90143" y1="-4.57956" x2="78.368" y2="131.97" gradientUnits="userSpaceOnUse">
<stop stop-color="#437FEC"/>
<stop offset="0.38" stop-color="#356FD8"/>
<stop offset="1" stop-color="#184EAE"/>
</linearGradient>
<clipPath id="clip0_2_2985">
<rect width="105" height="119" fill="white"/>
</clipPath>
</defs>
</svg>
